<?xml version="1.0" encoding="UTF-8"?>
<!DOCTYPE svg PUBLIC "-//W3C//DTD SVG 1.1//EN" "http://www.w3.org/Graphics/SVG/1.1/DTD/svg11.dtd">
<svg version="1.1" xmlns="http://www.w3.org/2000/svg" xmlns:xlink="http://www.w3.org/1999/xlink" x="0" y="0" width="29.94" height="24.2" viewBox="0, 0, 29.94, 24.2">
  <g id="Layer_1">
    <path d="M7.108,19.464 L7.108,21.84 C7.108,23.148 6.048,24.2 4.752,24.2 C3.448,24.2 2.396,23.148 2.396,21.84 L2.396,19.464 L0,19.464 L0,11.744 L0,11.736 C0,10.048 1.136,8.636 2.68,8.212 L5.44,1.64 C5.844,0.68 6.792,0 7.896,0 L22.032,0 C23.14,0 24.096,0.68 24.492,1.64 L27.252,8.212 C28.8,8.632 29.94,10.048 29.94,11.736 L29.932,11.744 L29.932,19.464 L27.532,19.464 L27.544,21.84 C27.544,23.148 26.484,24.2 25.188,24.2 C23.88,24.2 22.824,23.148 22.824,21.84 L22.832,19.464 L7.108,19.464 z M4.892,15.224 C6.212,15.224 7.288,14.148 7.288,12.836 C7.288,11.508 6.212,10.448 4.892,10.448 C3.568,10.448 2.496,11.508 2.496,12.836 C2.496,14.148 3.568,15.224 4.892,15.224 M27.28,12.836 C27.28,11.508 26.208,10.448 24.884,10.448 C23.564,10.448 22.488,11.508 22.488,12.836 C22.488,14.148 23.564,15.224 24.884,15.224 C26.208,15.224 27.28,14.148 27.28,12.836 M24.888,8.084 L22.516,2.412 C22.42,2.132 22.144,1.924 21.816,1.924 L8.112,1.924 C7.796,1.924 7.52,2.132 7.416,2.412 L5.052,8.084 L24.888,8.084 z" fill="#3B3B3B"/>
  </g>
</svg>
