<?xml version="1.0" encoding="UTF-8"?>
<!DOCTYPE svg PUBLIC "-//W3C//DTD SVG 1.1//EN" "http://www.w3.org/Graphics/SVG/1.1/DTD/svg11.dtd">
<svg version="1.1" xmlns="http://www.w3.org/2000/svg" xmlns:xlink="http://www.w3.org/1999/xlink" x="0" y="0" width="33.099" height="26.383" viewBox="0, 0, 33.099, 26.383">
  <g id="Layer_1">
    <path d="M10.686,4.836 C12.186,4.836 13.262,6.072 13.487,6.744 L15.323,12.787 C15.69,14.088 14.038,14.623 13.643,13.359 L11.991,7.812 L11.038,7.812 L13.806,17.671 L11.167,17.671 L11.167,25.366 C11.167,26.678 9.194,26.671 9.194,25.366 L9.194,17.622 L8.19,17.622 L8.19,25.351 C8.19,26.679 6.21,26.679 6.21,25.351 L6.21,17.671 L3.563,17.671 L6.301,7.812 L5.395,7.812 L3.738,13.375 C3.345,14.588 1.677,14.092 2.056,12.787 L3.898,6.744 C4.093,6.056 4.96,4.836 6.468,4.836 L10.686,4.836 z M9.21,6.146 L8.173,6.146 L8.174,7.182 L7.136,7.182 L7.136,8.22 L8.174,8.22 L8.173,9.256 L9.21,9.256 L9.209,8.22 L10.247,8.22 L10.247,7.182 L9.209,7.182 L9.21,6.146 z" fill="#3B3B3B"/>
    <path d="M8.689,4.375 C9.873,4.375 10.834,3.416 10.834,2.234 C10.834,1.046 9.873,0.088 8.689,0.088 C7.505,0.088 6.548,1.047 6.548,2.234 C6.548,3.416 7.505,4.375 8.689,4.375" fill="#3B3B3B"/>
    <path d="M25.509,4.341 C26.693,4.341 27.654,3.39 27.654,2.201 C27.654,1.02 26.693,0.061 25.509,0.061 C24.329,0.061 23.368,1.02 23.368,2.201 C23.368,3.39 24.329,4.341 25.509,4.341" fill="#3B3B3B"/>
    <path d="M22.647,4.782 L28.331,4.79 C29.995,4.79 31.099,6.182 31.099,7.602 L31.099,14.149 C31.103,15.438 29.423,15.438 29.423,14.149 L29.423,7.743 L28.423,7.743 L28.415,25.118 C28.415,25.782 27.878,26.321 27.214,26.321 C26.55,26.321 26.019,25.782 26.019,25.118 L26.019,15.038 L25.011,15.038 L25.011,25.118 C25.011,25.782 24.47,26.321 23.806,26.321 C23.144,26.321 22.607,25.782 22.607,25.118 L22.611,7.743 L21.595,7.743 L21.595,14.149 C21.595,15.422 19.907,15.422 19.907,14.149 L19.907,7.561 C19.907,6.026 21.126,4.782 22.647,4.782 z M26.03,6.146 L24.993,6.146 L24.994,7.182 L23.956,7.182 L23.956,8.22 L24.994,8.22 L24.993,9.256 L26.03,9.256 L26.029,8.22 L27.067,8.22 L27.067,7.182 L26.029,7.182 L26.03,6.146 z" fill="#3B3B3B"/>
  </g>
</svg>
