<?xml version="1.0" encoding="UTF-8"?>
<!DOCTYPE svg PUBLIC "-//W3C//DTD SVG 1.1//EN" "http://www.w3.org/Graphics/SVG/1.1/DTD/svg11.dtd">
<svg version="1.1" xmlns="http://www.w3.org/2000/svg" xmlns:xlink="http://www.w3.org/1999/xlink" x="0" y="0" width="320" height="55" viewBox="0, 0, 320, 55">
  <g id="Layer_1">
    <g>
      <g>
        <path d="M36.51,8.431 Q35.488,9.197 35.424,9.261 Q34.977,9.708 34.722,10.41 Q33.317,14.049 33.062,30.458 Q35.361,30.969 35.361,31.99 Q35.361,32.629 34.786,33.459 Q34.147,33.714 32.934,34.225 Q32.934,37.034 33.573,42.461 Q33.637,42.78 34.211,44.377 Q34.658,45.654 34.658,46.164 Q34.658,46.931 34.084,47.697 Q33.509,48.463 32.743,48.463 Q31.019,48.463 30.381,45.909 Q30.317,45.59 29.87,41.855 Q29.423,38.12 29.423,37.034 Q29.423,35.885 29.614,34.864 Q25.656,34.927 20.293,35.949 Q15.696,36.843 11.099,37.8 L9.95,38.95 Q10.013,41.376 10.013,43.866 Q10.269,47.633 11.227,48.718 Q10.971,49.548 10.428,49.548 Q9.886,49.548 9.152,49.836 Q8.417,50.123 8.034,50.123 Q6.821,50.123 6.502,45.334 Q6.374,42.334 6.31,39.333 L5.863,38.694 Q5.608,38.758 5.608,38.758 Q4.778,38.758 4.076,38.279 Q3.373,37.8 3.373,37.034 Q3.373,36.524 3.948,35.598 Q4.523,34.672 5.097,34.672 Q5.225,34.672 5.448,34.736 Q5.672,34.8 5.8,34.8 Q5.8,34.8 6.119,34.736 Q6.183,31.927 6.183,23.499 Q6.183,12.326 7.715,8.303 Q8.417,6.579 10.013,6.579 Q11.035,6.579 11.993,7.25 Q12.95,7.92 12.95,8.942 Q12.95,9.325 12.376,10.666 Q11.737,12.262 11.673,12.517 Q9.95,18.646 9.95,31.033 Q9.95,33.906 11.035,33.906 Q11.354,33.906 14.419,33.267 Q21.314,31.99 23.613,31.99 Q24.187,31.99 25.56,31.639 Q26.933,31.288 28.242,31.288 Q29.551,31.288 29.487,29.5 L29.359,23.882 Q29.231,18.455 29.87,13.028 Q30.827,4.472 33.317,4.472 Q34.594,4.472 35.616,5.813 Q36.446,7.026 36.51,8.431 z" fill="#FFFFFF"/>
        <path d="M36.51,8.431 Q35.488,9.197 35.424,9.261 Q34.977,9.708 34.722,10.41 Q33.317,14.049 33.062,30.458 Q35.361,30.969 35.361,31.99 Q35.361,32.629 34.786,33.459 Q34.147,33.714 32.934,34.225 Q32.934,37.034 33.573,42.461 Q33.637,42.78 34.211,44.377 Q34.658,45.654 34.658,46.164 Q34.658,46.931 34.084,47.697 Q33.509,48.463 32.743,48.463 Q31.019,48.463 30.381,45.909 Q30.317,45.59 29.87,41.855 Q29.423,38.12 29.423,37.034 Q29.423,35.885 29.614,34.864 Q25.656,34.927 20.293,35.949 Q15.696,36.843 11.099,37.8 L9.95,38.95 Q10.013,41.376 10.013,43.866 Q10.269,47.633 11.227,48.718 Q10.971,49.548 10.428,49.548 Q9.886,49.548 9.152,49.836 Q8.417,50.123 8.034,50.123 Q6.821,50.123 6.502,45.334 Q6.374,42.334 6.31,39.333 L5.863,38.694 Q5.608,38.758 5.608,38.758 Q4.778,38.758 4.076,38.279 Q3.373,37.8 3.373,37.034 Q3.373,36.524 3.948,35.598 Q4.523,34.672 5.097,34.672 Q5.225,34.672 5.448,34.736 Q5.672,34.8 5.8,34.8 Q5.8,34.8 6.119,34.736 Q6.183,31.927 6.183,23.499 Q6.183,12.326 7.715,8.303 Q8.417,6.579 10.013,6.579 Q11.035,6.579 11.993,7.25 Q12.95,7.92 12.95,8.942 Q12.95,9.325 12.376,10.666 Q11.737,12.262 11.673,12.517 Q9.95,18.646 9.95,31.033 Q9.95,33.906 11.035,33.906 Q11.354,33.906 14.419,33.267 Q21.314,31.99 23.613,31.99 Q24.187,31.99 25.56,31.639 Q26.933,31.288 28.242,31.288 Q29.551,31.288 29.487,29.5 L29.359,23.882 Q29.231,18.455 29.87,13.028 Q30.827,4.472 33.317,4.472 Q34.594,4.472 35.616,5.813 Q36.446,7.026 36.51,8.431 z" fill-opacity="0" stroke="#FFFFFF" stroke-width="0.5"/>
      </g>
      <g>
        <path d="M59.622,36.204 Q59.622,41.695 57.196,45.781 Q54.323,50.697 49.215,50.697 Q44.044,50.697 41.49,46.675 Q39.383,43.355 39.383,37.864 Q39.383,32.437 41.809,27.202 Q44.874,20.753 49.598,20.753 Q50.811,20.753 53.046,22.158 Q59.622,26.244 59.622,36.204 z M56.558,36.14 Q56.558,32.054 55.472,28.798 Q53.876,24.265 50.556,24.265 Q46.725,24.265 44.554,29.309 Q42.894,33.204 42.894,37.673 Q42.894,41.695 44.044,44.441 Q45.704,48.207 49.215,48.207 Q53.046,48.207 55.025,43.866 Q56.558,40.482 56.558,36.14 z" fill="#FFFFFF"/>
        <path d="M59.622,36.204 Q59.622,41.695 57.196,45.781 Q54.323,50.697 49.215,50.697 Q44.044,50.697 41.49,46.675 Q39.383,43.355 39.383,37.864 Q39.383,32.437 41.809,27.202 Q44.874,20.753 49.598,20.753 Q50.811,20.753 53.046,22.158 Q59.622,26.244 59.622,36.204 z M56.558,36.14 Q56.558,32.054 55.472,28.798 Q53.876,24.265 50.556,24.265 Q46.725,24.265 44.554,29.309 Q42.894,33.204 42.894,37.673 Q42.894,41.695 44.044,44.441 Q45.704,48.207 49.215,48.207 Q53.046,48.207 55.025,43.866 Q56.558,40.482 56.558,36.14 z" fill-opacity="0" stroke="#FFFFFF" stroke-width="0.5"/>
      </g>
      <g>
        <path d="M93.014,49.165 Q91.673,49.995 90.971,49.995 Q90.524,49.995 89.694,49.548 Q89.758,48.527 89.758,46.101 Q89.822,43.866 89.822,42.653 Q89.822,22.988 85.736,22.988 Q83.309,22.988 81.522,29.117 Q80.117,34.034 80.117,37.417 L80.117,43.802 Q80.117,44.313 80.404,45.239 Q80.692,46.164 80.692,46.611 Q80.692,47.122 79.989,47.633 Q79.287,48.144 78.776,48.144 Q78.202,48.144 77.499,47.346 Q76.797,46.547 76.797,45.973 L76.797,33.14 Q76.797,31.097 76.095,27.968 Q75.201,24.01 73.924,24.01 Q73.222,24.01 71.817,25.797 Q67.028,31.927 67.028,40.865 Q67.028,41.951 67.284,44.089 Q67.539,46.228 67.539,47.25 Q67.539,49.165 65.943,49.165 Q65.177,49.165 64.602,48.527 Q64.347,48.207 64.028,45.654 Q63.708,43.355 63.708,42.525 L63.708,27.457 Q63.708,20.945 65.241,20.945 Q65.879,20.945 66.55,21.552 Q67.22,22.158 67.22,22.797 Q67.22,24.137 66.837,26.308 Q66.454,29.117 66.39,29.82 L66.709,30.139 Q67.922,27.393 69.135,24.648 Q70.859,21.136 73.222,21.136 Q76.542,21.136 78.968,28.287 Q79.606,27.521 80.564,25.095 Q81.522,22.669 82.288,21.647 Q83.501,20.115 85.289,20.115 Q87.013,20.115 89.119,22.413 Q93.014,26.563 93.014,37.417 z" fill="#FFFFFF"/>
        <path d="M93.014,49.165 Q91.673,49.995 90.971,49.995 Q90.524,49.995 89.694,49.548 Q89.758,48.527 89.758,46.101 Q89.822,43.866 89.822,42.653 Q89.822,22.988 85.736,22.988 Q83.309,22.988 81.522,29.117 Q80.117,34.034 80.117,37.417 L80.117,43.802 Q80.117,44.313 80.404,45.239 Q80.692,46.164 80.692,46.611 Q80.692,47.122 79.989,47.633 Q79.287,48.144 78.776,48.144 Q78.202,48.144 77.499,47.346 Q76.797,46.547 76.797,45.973 L76.797,33.14 Q76.797,31.097 76.095,27.968 Q75.201,24.01 73.924,24.01 Q73.222,24.01 71.817,25.797 Q67.028,31.927 67.028,40.865 Q67.028,41.951 67.284,44.089 Q67.539,46.228 67.539,47.25 Q67.539,49.165 65.943,49.165 Q65.177,49.165 64.602,48.527 Q64.347,48.207 64.028,45.654 Q63.708,43.355 63.708,42.525 L63.708,27.457 Q63.708,20.945 65.241,20.945 Q65.879,20.945 66.55,21.552 Q67.22,22.158 67.22,22.797 Q67.22,24.137 66.837,26.308 Q66.454,29.117 66.39,29.82 L66.709,30.139 Q67.922,27.393 69.135,24.648 Q70.859,21.136 73.222,21.136 Q76.542,21.136 78.968,28.287 Q79.606,27.521 80.564,25.095 Q81.522,22.669 82.288,21.647 Q83.501,20.115 85.289,20.115 Q87.013,20.115 89.119,22.413 Q93.014,26.563 93.014,37.417 z" fill-opacity="0" stroke="#FFFFFF" stroke-width="0.5"/>
      </g>
      <g>
        <path d="M115.743,42.461 Q115.743,45.271 111.977,47.505 Q108.593,49.548 105.592,49.548 Q97.036,49.548 97.036,38.694 Q97.036,33.906 98.76,28.415 Q101.059,21.264 104.634,21.264 Q107.699,21.264 111.338,24.361 Q114.977,27.457 114.977,30.522 Q114.977,34.48 111.785,37.417 Q108.593,40.354 104.57,40.354 Q104.187,40.354 102.942,39.716 Q101.697,39.077 101.25,39.077 Q100.42,39.077 100.42,39.588 Q100.42,46.931 105.273,46.931 Q107.763,46.931 109.87,45.271 Q111.147,44.313 112.679,42.27 Q113.892,40.674 114.275,40.674 Q115.743,40.674 115.743,42.461 z M111.338,30.713 Q111.338,28.479 110.061,26.532 Q108.784,24.584 106.677,24.584 Q104.123,24.584 102.527,27.777 Q101.186,30.458 101.186,33.331 Q101.186,35.183 102.368,36.428 Q103.549,37.673 105.4,37.673 Q108.018,37.673 109.742,35.438 Q111.338,33.395 111.338,30.713 z" fill="#FFFFFF"/>
        <path d="M115.743,42.461 Q115.743,45.271 111.977,47.505 Q108.593,49.548 105.592,49.548 Q97.036,49.548 97.036,38.694 Q97.036,33.906 98.76,28.415 Q101.059,21.264 104.634,21.264 Q107.699,21.264 111.338,24.361 Q114.977,27.457 114.977,30.522 Q114.977,34.48 111.785,37.417 Q108.593,40.354 104.57,40.354 Q104.187,40.354 102.942,39.716 Q101.697,39.077 101.25,39.077 Q100.42,39.077 100.42,39.588 Q100.42,46.931 105.273,46.931 Q107.763,46.931 109.87,45.271 Q111.147,44.313 112.679,42.27 Q113.892,40.674 114.275,40.674 Q115.743,40.674 115.743,42.461 z M111.338,30.713 Q111.338,28.479 110.061,26.532 Q108.784,24.584 106.677,24.584 Q104.123,24.584 102.527,27.777 Q101.186,30.458 101.186,33.331 Q101.186,35.183 102.368,36.428 Q103.549,37.673 105.4,37.673 Q108.018,37.673 109.742,35.438 Q111.338,33.395 111.338,30.713 z" fill-opacity="0" stroke="#FFFFFF" stroke-width="0.5"/>
      </g>
      <g>
        <path d="M160.372,38.95 Q160.372,39.971 159.798,41.631 Q158.457,45.526 154.371,47.888 Q150.604,50.059 146.198,50.059 Q138.728,50.059 134.961,43.93 Q131.769,38.886 131.769,30.969 Q131.769,24.201 133.748,18.2 Q135.983,11.176 140.388,7.346 Q143.644,4.472 146.965,4.472 Q151.881,4.472 154.307,9.197 Q156.222,12.9 156.222,18.327 Q156.222,21.009 155.392,24.52 Q154.307,29.117 152.583,29.117 Q151.242,29.117 150.668,27.713 Q151.051,27.457 151.881,26.819 Q153.541,25.223 153.541,19.03 Q153.541,15.263 152.136,11.815 Q150.348,7.346 147.22,7.346 Q144.73,7.346 141.984,10.346 Q139.941,12.581 138.473,15.518 Q135.217,22.286 135.217,32.182 Q135.217,38.758 137.515,42.653 Q140.388,47.505 146.454,47.505 Q149.774,47.505 152.519,45.749 Q155.265,43.994 156.733,41.057 Q156.988,40.099 157.818,38.375 Q158.329,37.545 159.095,37.545 Q160.372,37.545 160.372,38.95 z" fill="#FFFFFF"/>
        <path d="M160.372,38.95 Q160.372,39.971 159.798,41.631 Q158.457,45.526 154.371,47.888 Q150.604,50.059 146.198,50.059 Q138.728,50.059 134.961,43.93 Q131.769,38.886 131.769,30.969 Q131.769,24.201 133.748,18.2 Q135.983,11.176 140.388,7.346 Q143.644,4.472 146.965,4.472 Q151.881,4.472 154.307,9.197 Q156.222,12.9 156.222,18.327 Q156.222,21.009 155.392,24.52 Q154.307,29.117 152.583,29.117 Q151.242,29.117 150.668,27.713 Q151.051,27.457 151.881,26.819 Q153.541,25.223 153.541,19.03 Q153.541,15.263 152.136,11.815 Q150.348,7.346 147.22,7.346 Q144.73,7.346 141.984,10.346 Q139.941,12.581 138.473,15.518 Q135.217,22.286 135.217,32.182 Q135.217,38.758 137.515,42.653 Q140.388,47.505 146.454,47.505 Q149.774,47.505 152.519,45.749 Q155.265,43.994 156.733,41.057 Q156.988,40.099 157.818,38.375 Q158.329,37.545 159.095,37.545 Q160.372,37.545 160.372,38.95 z" fill-opacity="0" stroke="#FFFFFF" stroke-width="0.5"/>
      </g>
      <g>
        <path d="M182.463,50.634 Q182.463,51.528 181.059,51.528 Q179.526,51.528 179.207,50.251 Q179.143,50.059 179.143,47.761 Q179.143,47.122 178.952,46.739 Q175.376,49.357 171.226,49.357 Q168.353,49.357 165.672,47.761 Q162.607,45.973 162.607,43.291 Q162.607,40.674 166.246,38.184 Q169.566,35.885 172.375,35.885 L178.696,35.885 Q179.079,35.502 179.079,34.544 Q179.079,30.267 178.377,28.096 Q177.228,24.457 173.844,24.457 Q171.418,24.457 169.375,27.521 Q167.523,30.33 167.523,32.884 Q167.523,33.012 167.523,33.267 Q167.523,33.523 167.523,33.587 Q167.523,34.097 167.012,34.097 Q166.374,34.097 165.608,33.331 Q164.842,32.565 164.842,31.99 Q164.842,30.203 165.927,27.489 Q167.012,24.776 168.289,23.371 Q169.885,21.647 172.248,21.647 Q175.887,21.647 178.952,23.946 Q182.208,26.436 182.272,29.947 z M179.079,40.482 Q179.079,37.928 175.121,37.928 Q171.992,37.928 169.63,39.014 Q166.629,40.418 166.629,43.227 Q166.629,44.951 168.225,45.909 Q169.566,46.739 171.418,46.739 Q174.163,46.739 176.621,44.951 Q179.079,43.164 179.079,40.482 z" fill="#FFFFFF"/>
        <path d="M182.463,50.634 Q182.463,51.528 181.059,51.528 Q179.526,51.528 179.207,50.251 Q179.143,50.059 179.143,47.761 Q179.143,47.122 178.952,46.739 Q175.376,49.357 171.226,49.357 Q168.353,49.357 165.672,47.761 Q162.607,45.973 162.607,43.291 Q162.607,40.674 166.246,38.184 Q169.566,35.885 172.375,35.885 L178.696,35.885 Q179.079,35.502 179.079,34.544 Q179.079,30.267 178.377,28.096 Q177.228,24.457 173.844,24.457 Q171.418,24.457 169.375,27.521 Q167.523,30.33 167.523,32.884 Q167.523,33.012 167.523,33.267 Q167.523,33.523 167.523,33.587 Q167.523,34.097 167.012,34.097 Q166.374,34.097 165.608,33.331 Q164.842,32.565 164.842,31.99 Q164.842,30.203 165.927,27.489 Q167.012,24.776 168.289,23.371 Q169.885,21.647 172.248,21.647 Q175.887,21.647 178.952,23.946 Q182.208,26.436 182.272,29.947 z M179.079,40.482 Q179.079,37.928 175.121,37.928 Q171.992,37.928 169.63,39.014 Q166.629,40.418 166.629,43.227 Q166.629,44.951 168.225,45.909 Q169.566,46.739 171.418,46.739 Q174.163,46.739 176.621,44.951 Q179.079,43.164 179.079,40.482 z" fill-opacity="0" stroke="#FFFFFF" stroke-width="0.5"/>
      </g>
      <g>
        <path d="M201.17,26.053 Q201.17,26.308 201.106,27.138 Q200.276,28.415 199.51,28.415 Q199,28.415 198.616,27.777 Q198.425,23.754 195.296,23.754 Q193.253,23.754 191.274,31.288 Q190.508,34.034 190.508,38.63 Q190.508,44.504 190.827,45.845 Q190.891,46.037 191.146,46.643 Q191.402,47.25 191.402,47.569 Q191.402,48.974 189.486,48.974 Q187.316,48.974 187.316,46.739 Q187.316,46.42 187.475,45.813 Q187.635,45.207 187.635,44.887 Q187.635,41.376 187.316,34.353 Q186.996,27.33 186.996,23.818 Q186.996,22.541 187.443,22.254 Q187.89,21.967 189.167,21.967 Q190.763,21.967 191.019,23.116 Q191.083,24.393 191.146,25.606 Q192.806,23.052 193.062,22.733 Q194.466,21.136 195.999,21.136 Q197.148,21.136 198.297,21.839 Q198.936,22.222 200.053,23.818 Q201.17,25.414 201.17,26.053 z" fill="#FFFFFF"/>
        <path d="M201.17,26.053 Q201.17,26.308 201.106,27.138 Q200.276,28.415 199.51,28.415 Q199,28.415 198.616,27.777 Q198.425,23.754 195.296,23.754 Q193.253,23.754 191.274,31.288 Q190.508,34.034 190.508,38.63 Q190.508,44.504 190.827,45.845 Q190.891,46.037 191.146,46.643 Q191.402,47.25 191.402,47.569 Q191.402,48.974 189.486,48.974 Q187.316,48.974 187.316,46.739 Q187.316,46.42 187.475,45.813 Q187.635,45.207 187.635,44.887 Q187.635,41.376 187.316,34.353 Q186.996,27.33 186.996,23.818 Q186.996,22.541 187.443,22.254 Q187.89,21.967 189.167,21.967 Q190.763,21.967 191.019,23.116 Q191.083,24.393 191.146,25.606 Q192.806,23.052 193.062,22.733 Q194.466,21.136 195.999,21.136 Q197.148,21.136 198.297,21.839 Q198.936,22.222 200.053,23.818 Q201.17,25.414 201.17,26.053 z" fill-opacity="0" stroke="#FFFFFF" stroke-width="0.5"/>
      </g>
      <g>
        <path d="M221.027,42.461 Q221.027,45.271 217.26,47.505 Q213.876,49.548 210.875,49.548 Q202.32,49.548 202.32,38.694 Q202.32,33.906 204.043,28.415 Q206.342,21.264 209.917,21.264 Q212.982,21.264 216.621,24.361 Q220.26,27.457 220.26,30.522 Q220.26,34.48 217.068,37.417 Q213.876,40.354 209.853,40.354 Q209.47,40.354 208.225,39.716 Q206.98,39.077 206.533,39.077 Q205.703,39.077 205.703,39.588 Q205.703,46.931 210.556,46.931 Q213.046,46.931 215.153,45.271 Q216.43,44.313 217.962,42.27 Q219.175,40.674 219.558,40.674 Q221.027,40.674 221.027,42.461 z M216.621,30.713 Q216.621,28.479 215.344,26.532 Q214.067,24.584 211.96,24.584 Q209.407,24.584 207.81,27.777 Q206.47,30.458 206.47,33.331 Q206.47,35.183 207.651,36.428 Q208.832,37.673 210.683,37.673 Q213.301,37.673 215.025,35.438 Q216.621,33.395 216.621,30.713 z" fill="#FFFFFF"/>
        <path d="M221.027,42.461 Q221.027,45.271 217.26,47.505 Q213.876,49.548 210.875,49.548 Q202.32,49.548 202.32,38.694 Q202.32,33.906 204.043,28.415 Q206.342,21.264 209.917,21.264 Q212.982,21.264 216.621,24.361 Q220.26,27.457 220.26,30.522 Q220.26,34.48 217.068,37.417 Q213.876,40.354 209.853,40.354 Q209.47,40.354 208.225,39.716 Q206.98,39.077 206.533,39.077 Q205.703,39.077 205.703,39.588 Q205.703,46.931 210.556,46.931 Q213.046,46.931 215.153,45.271 Q216.43,44.313 217.962,42.27 Q219.175,40.674 219.558,40.674 Q221.027,40.674 221.027,42.461 z M216.621,30.713 Q216.621,28.479 215.344,26.532 Q214.067,24.584 211.96,24.584 Q209.407,24.584 207.81,27.777 Q206.47,30.458 206.47,33.331 Q206.47,35.183 207.651,36.428 Q208.832,37.673 210.683,37.673 Q213.301,37.673 215.025,35.438 Q216.621,33.395 216.621,30.713 z" fill-opacity="0" stroke="#FFFFFF" stroke-width="0.5"/>
      </g>
      <g>
        <path d="M265.528,24.648 Q262.91,40.865 251.801,40.227 Q245.799,39.844 241.649,36.268 L241.202,36.587 L241.202,39.205 Q241.138,42.972 241.841,44.76 Q241.904,44.951 242.543,46.069 Q243.181,47.186 243.181,47.441 Q243.181,48.207 242.607,48.878 Q242.032,49.548 241.202,49.548 Q239.287,49.548 238.521,48.271 Q238.01,47.314 237.882,45.207 Q237.691,41.951 237.691,38.63 Q237.691,36.715 237.978,32.884 Q238.265,29.053 238.233,27.042 Q238.201,25.031 238.521,21.105 Q238.84,17.178 238.84,15.263 L238.84,9.197 Q238.84,8.75 238.616,7.793 Q238.393,6.835 238.393,6.388 Q238.393,5.175 240.053,5.175 Q241.138,5.175 241.873,6.133 Q242.607,7.09 242.607,8.176 Q242.607,9.006 242.256,10.538 Q241.904,12.07 241.904,12.9 L241.968,14.56 Q243.437,12.006 244.905,9.453 Q248.353,4.664 254.035,4.664 Q260.165,4.664 263.293,9.708 Q265.847,13.858 265.847,20.243 Q265.847,22.477 265.528,24.648 z M262.719,21.009 Q262.719,16.029 260.995,12.262 Q258.76,7.346 254.418,7.346 Q248.8,7.346 244.905,14.816 Q241.585,21.2 241.585,27.393 L241.585,30.777 Q242.224,30.458 242.543,30.458 Q242.99,30.458 243.341,31.097 Q243.692,31.735 243.948,31.927 Q243.884,32.118 243.756,32.054 Q243.628,31.99 243.628,32.182 Q243.628,32.501 244.139,33.331 Q246.629,37.162 251.801,37.162 Q256.653,37.162 259.079,33.97 Q260.931,31.607 262.016,26.436 Q262.719,22.797 262.719,21.009 z" fill="#FFFFFF"/>
        <path d="M265.528,24.648 Q262.91,40.865 251.801,40.227 Q245.799,39.844 241.649,36.268 L241.202,36.587 L241.202,39.205 Q241.138,42.972 241.841,44.76 Q241.904,44.951 242.543,46.069 Q243.181,47.186 243.181,47.441 Q243.181,48.207 242.607,48.878 Q242.032,49.548 241.202,49.548 Q239.287,49.548 238.521,48.271 Q238.01,47.314 237.882,45.207 Q237.691,41.951 237.691,38.63 Q237.691,36.715 237.978,32.884 Q238.265,29.053 238.233,27.042 Q238.201,25.031 238.521,21.105 Q238.84,17.178 238.84,15.263 L238.84,9.197 Q238.84,8.75 238.616,7.793 Q238.393,6.835 238.393,6.388 Q238.393,5.175 240.053,5.175 Q241.138,5.175 241.873,6.133 Q242.607,7.09 242.607,8.176 Q242.607,9.006 242.256,10.538 Q241.904,12.07 241.904,12.9 L241.968,14.56 Q243.437,12.006 244.905,9.453 Q248.353,4.664 254.035,4.664 Q260.165,4.664 263.293,9.708 Q265.847,13.858 265.847,20.243 Q265.847,22.477 265.528,24.648 z M262.719,21.009 Q262.719,16.029 260.995,12.262 Q258.76,7.346 254.418,7.346 Q248.8,7.346 244.905,14.816 Q241.585,21.2 241.585,27.393 L241.585,30.777 Q242.224,30.458 242.543,30.458 Q242.99,30.458 243.341,31.097 Q243.692,31.735 243.948,31.927 Q243.884,32.118 243.756,32.054 Q243.628,31.99 243.628,32.182 Q243.628,32.501 244.139,33.331 Q246.629,37.162 251.801,37.162 Q256.653,37.162 259.079,33.97 Q260.931,31.607 262.016,26.436 Q262.719,22.797 262.719,21.009 z" fill-opacity="0" stroke="#FFFFFF" stroke-width="0.5"/>
      </g>
      <g>
        <path d="M287.108,50.634 Q287.108,51.528 285.703,51.528 Q284.171,51.528 283.852,50.251 Q283.788,50.059 283.788,47.761 Q283.788,47.122 283.596,46.739 Q280.021,49.357 275.871,49.357 Q272.998,49.357 270.316,47.761 Q267.252,45.973 267.252,43.291 Q267.252,40.674 270.891,38.184 Q274.211,35.885 277.02,35.885 L283.341,35.885 Q283.724,35.502 283.724,34.544 Q283.724,30.267 283.022,28.096 Q281.872,24.457 278.489,24.457 Q276.062,24.457 274.019,27.521 Q272.168,30.33 272.168,32.884 Q272.168,33.012 272.168,33.267 Q272.168,33.523 272.168,33.587 Q272.168,34.097 271.657,34.097 Q271.019,34.097 270.252,33.331 Q269.486,32.565 269.486,31.99 Q269.486,30.203 270.572,27.489 Q271.657,24.776 272.934,23.371 Q274.53,21.647 276.892,21.647 Q280.532,21.647 283.596,23.946 Q286.853,26.436 286.916,29.947 z M283.724,40.482 Q283.724,37.928 279.766,37.928 Q276.637,37.928 274.275,39.014 Q271.274,40.418 271.274,43.227 Q271.274,44.951 272.87,45.909 Q274.211,46.739 276.062,46.739 Q278.808,46.739 281.266,44.951 Q283.724,43.164 283.724,40.482 z" fill="#FFFFFF"/>
        <path d="M287.108,50.634 Q287.108,51.528 285.703,51.528 Q284.171,51.528 283.852,50.251 Q283.788,50.059 283.788,47.761 Q283.788,47.122 283.596,46.739 Q280.021,49.357 275.871,49.357 Q272.998,49.357 270.316,47.761 Q267.252,45.973 267.252,43.291 Q267.252,40.674 270.891,38.184 Q274.211,35.885 277.02,35.885 L283.341,35.885 Q283.724,35.502 283.724,34.544 Q283.724,30.267 283.022,28.096 Q281.872,24.457 278.489,24.457 Q276.062,24.457 274.019,27.521 Q272.168,30.33 272.168,32.884 Q272.168,33.012 272.168,33.267 Q272.168,33.523 272.168,33.587 Q272.168,34.097 271.657,34.097 Q271.019,34.097 270.252,33.331 Q269.486,32.565 269.486,31.99 Q269.486,30.203 270.572,27.489 Q271.657,24.776 272.934,23.371 Q274.53,21.647 276.892,21.647 Q280.532,21.647 283.596,23.946 Q286.853,26.436 286.916,29.947 z M283.724,40.482 Q283.724,37.928 279.766,37.928 Q276.637,37.928 274.275,39.014 Q271.274,40.418 271.274,43.227 Q271.274,44.951 272.87,45.909 Q274.211,46.739 276.062,46.739 Q278.808,46.739 281.266,44.951 Q283.724,43.164 283.724,40.482 z" fill-opacity="0" stroke="#FFFFFF" stroke-width="0.5"/>
      </g>
      <g>
        <path d="M296.366,48.144 Q296.366,49.804 294.578,49.804 Q291.769,49.804 291.833,38.247 L292.024,9.58 Q292.024,8.878 291.833,7.569 Q291.641,6.26 291.641,5.622 Q292.854,4.728 293.684,4.728 Q294.578,4.728 295.472,5.366 Q296.366,6.005 296.366,6.899 Q296.366,7.537 296.046,8.559 Q295.663,9.836 295.6,10.155 Q294.833,14.496 294.833,22.286 Q294.833,34.864 294.77,34.417 Q294.961,42.27 295.791,46.228 Q295.791,46.42 296.078,47.09 Q296.366,47.761 296.366,48.144 z" fill="#FFFFFF"/>
        <path d="M296.366,48.144 Q296.366,49.804 294.578,49.804 Q291.769,49.804 291.833,38.247 L292.024,9.58 Q292.024,8.878 291.833,7.569 Q291.641,6.26 291.641,5.622 Q292.854,4.728 293.684,4.728 Q294.578,4.728 295.472,5.366 Q296.366,6.005 296.366,6.899 Q296.366,7.537 296.046,8.559 Q295.663,9.836 295.6,10.155 Q294.833,14.496 294.833,22.286 Q294.833,34.864 294.77,34.417 Q294.961,42.27 295.791,46.228 Q295.791,46.42 296.078,47.09 Q296.366,47.761 296.366,48.144 z" fill-opacity="0" stroke="#FFFFFF" stroke-width="0.5"/>
      </g>
      <g>
        <path d="M317.627,45.015 Q317.627,47.25 314.243,48.782 Q311.433,49.995 308.816,49.995 Q307.092,49.995 304.857,49.165 Q303.644,48.654 300.963,46.484 Q298.026,44.121 298.026,43.227 Q298.026,41.248 300.388,41.44 L300.771,41.44 Q300.899,43.355 304.857,45.59 Q308.433,47.633 310.603,47.633 Q313.413,47.633 313.413,45.717 Q313.413,44.568 309.965,42.525 Q305.24,39.78 303.517,38.12 Q300.005,34.736 300.005,30.33 Q300.005,27.01 301.729,24.01 Q303.708,20.434 306.709,20.434 Q308.88,20.434 311.944,22.445 Q315.009,24.456 315.52,26.5 Q316.03,28.223 316.03,30.522 Q316.03,33.012 315.137,35.949 Q314.562,36.396 313.796,36.396 Q313.349,36.396 312.391,36.045 Q311.433,35.694 311.433,35.31 Q311.433,35.566 312.136,33.906 Q312.647,32.82 312.647,29.947 Q312.647,23.116 308.369,23.116 Q306.134,23.116 304.793,26.117 Q303.644,28.543 303.644,31.033 Q303.644,34.161 307.283,37.098 Q308.497,38.12 313.987,41.504 Q317.627,43.738 317.627,45.015 z" fill="#FFFFFF"/>
        <path d="M317.627,45.015 Q317.627,47.25 314.243,48.782 Q311.433,49.995 308.816,49.995 Q307.092,49.995 304.857,49.165 Q303.644,48.654 300.963,46.484 Q298.026,44.121 298.026,43.227 Q298.026,41.248 300.388,41.44 L300.771,41.44 Q300.899,43.355 304.857,45.59 Q308.433,47.633 310.603,47.633 Q313.413,47.633 313.413,45.717 Q313.413,44.568 309.965,42.525 Q305.24,39.78 303.517,38.12 Q300.005,34.736 300.005,30.33 Q300.005,27.01 301.729,24.01 Q303.708,20.434 306.709,20.434 Q308.88,20.434 311.944,22.445 Q315.009,24.456 315.52,26.5 Q316.03,28.223 316.03,30.522 Q316.03,33.012 315.137,35.949 Q314.562,36.396 313.796,36.396 Q313.349,36.396 312.391,36.045 Q311.433,35.694 311.433,35.31 Q311.433,35.566 312.136,33.906 Q312.647,32.82 312.647,29.947 Q312.647,23.116 308.369,23.116 Q306.134,23.116 304.793,26.117 Q303.644,28.543 303.644,31.033 Q303.644,34.161 307.283,37.098 Q308.497,38.12 313.987,41.504 Q317.627,43.738 317.627,45.015 z" fill-opacity="0" stroke="#FFFFFF" stroke-width="0.5"/>
      </g>
    </g>
  </g>
</svg>
