<?xml version="1.0" encoding="UTF-8"?>
<!DOCTYPE svg PUBLIC "-//W3C//DTD SVG 1.1//EN" "http://www.w3.org/Graphics/SVG/1.1/DTD/svg11.dtd">
<svg version="1.1" xmlns="http://www.w3.org/2000/svg" xmlns:xlink="http://www.w3.org/1999/xlink" x="0" y="0" width="200" height="200" viewBox="0, 0, 200, 200">
  <g id="Layer_1">
    <g>
      <path d="M100,182.35 L28.128,110.478 L21.962,104.312 C2.116,84.466 2.116,52.288 21.963,32.441 C30.404,24.206 41.232,18.923 53.027,17.788 L57.893,17.672 L62.77,17.788 C74.885,18.979 84.945,24.406 93.834,32.441 L100,38.607 L124.899,63.505 L100,38.607 L106.166,32.441 C114.606,24.205 125.435,18.923 137.23,17.788 C140.463,17.477 143.725,17.788 146.973,17.788 C159.088,18.979 169.148,24.406 178.037,32.441 C197.884,52.288 197.884,84.466 178.037,104.313 L171.871,110.478 L100,182.35 z" fill="#2BA4FF"/>
      <path d="M57.893,17.832 L62.77,17.949 C74.885,19.139 84.945,24.567 93.834,32.601 L99.657,38.425 L99.657,182.168 L28.128,110.638 L21.962,104.473 C2.116,84.626 2.116,52.448 21.963,32.602 C30.404,24.366 41.232,19.084 53.027,17.949 L57.893,17.832 z" fill="#FF4444"/>
    </g>
    <path d="M100,155.567 L48.979,104.546 L44.602,100.169 C30.513,86.081 30.513,63.238 44.602,49.148 C50.594,43.302 58.281,39.552 66.654,38.747 L70.108,38.664 L73.571,38.747 C82.171,39.592 89.313,43.445 95.623,49.148 L100,53.525 L117.675,71.201 L100,53.525 L104.377,49.148 C110.369,43.302 118.056,39.552 126.429,38.747 C128.724,38.526 131.04,38.747 133.345,38.747 C141.946,39.592 149.088,43.445 155.398,49.148 C169.487,63.238 169.487,86.081 155.398,100.169 L151.021,104.546 L100,155.567 z" fill="#FFE12B"/>
  </g>
</svg>
