<?xml version="1.0" encoding="UTF-8"?>
<!DOCTYPE svg PUBLIC "-//W3C//DTD SVG 1.1//EN" "http://www.w3.org/Graphics/SVG/1.1/DTD/svg11.dtd">
<svg version="1.1" xmlns="http://www.w3.org/2000/svg" xmlns:xlink="http://www.w3.org/1999/xlink" x="0" y="0" width="400" height="55" viewBox="0, 0, 400, 55">
  <g id="Layer_1">
    <path d="M320.488,34.864 L320.488,37.24 C320.488,38.548 319.428,39.6 318.132,39.6 C316.828,39.6 315.776,38.548 315.776,37.24 L315.776,34.864 L313.38,34.864 L313.38,27.144 L313.38,27.136 C313.38,25.448 314.516,24.036 316.06,23.612 L318.82,17.04 C319.224,16.08 320.172,15.4 321.276,15.4 L335.412,15.4 C336.52,15.4 337.476,16.08 337.872,17.04 L340.632,23.612 C342.18,24.032 343.32,25.448 343.32,27.136 L343.312,27.144 L343.312,34.864 L340.912,34.864 L340.924,37.24 C340.924,38.548 339.864,39.6 338.568,39.6 C337.26,39.6 336.204,38.548 336.204,37.24 L336.212,34.864 L320.488,34.864 z M318.272,30.624 C319.592,30.624 320.668,29.548 320.668,28.236 C320.668,26.908 319.592,25.848 318.272,25.848 C316.948,25.848 315.876,26.908 315.876,28.236 C315.876,29.548 316.948,30.624 318.272,30.624 M340.66,28.236 C340.66,26.908 339.588,25.848 338.264,25.848 C336.944,25.848 335.868,26.908 335.868,28.236 C335.868,29.548 336.944,30.624 338.264,30.624 C339.588,30.624 340.66,29.548 340.66,28.236 M338.268,23.484 L335.896,17.812 C335.8,17.532 335.524,17.324 335.196,17.324 L321.492,17.324 C321.176,17.324 320.9,17.532 320.796,17.812 L318.432,23.484 L338.268,23.484 z" fill="#3B3B3B"/>
    <g>
      <path d="M275.197,23.719 L258.677,15.867 L258.677,14.303 L275.745,22.482 z" fill="#3B3B3B"/>
      <path d="M269.551,32.338 L276.78,32.338 L276.78,38.791 C276.78,39.846 277.635,40.697 278.688,40.697 C279.743,40.697 280.601,39.845 280.601,38.791 L280.601,32.338 C281.173,32.338 281.228,31.963 281.228,31.526 L281.228,26.715 L275.188,23.758 L262.348,23.758 L260.692,22.822 C260.159,22.517 259.484,22.705 259.185,23.238 C258.884,23.765 259.068,24.437 259.601,24.746 L262.215,26.246 L262.215,38.791 C262.215,39.846 263.07,40.697 264.127,40.697 C265.18,40.697 266.035,39.845 266.035,38.791 L266.031,33.877 L269.49,39.723 C270.031,40.627 271.203,40.922 272.115,40.387 C273.015,39.846 273.31,38.666 272.775,37.758 L269.551,32.338 z" fill="#3B3B3B"/>
      <path d="M275.779,22.453 L281.214,25.037 L281.214,24.025 L285.646,24.018 L287.271,20.525 L275.779,15.045 z" fill="#3B3B3B"/>
    </g>
    <g>
      <path d="M173.79,21.926 C173.79,22.971 172.843,24.082 171.61,24.082 L171.61,41.689 C171.61,44.185 168.202,44.185 168.202,41.689 L168.202,24.082 C167.003,24.082 165.958,23.158 165.958,21.77 L165.958,12.082 C165.958,11.238 167.179,11.201 167.179,12.113 L167.179,19.277 L168.199,19.277 L169.375,19.277 L169.283,19.277 L169.283,12.058 C169.283,11.249 170.424,11.218 170.424,12.089 L170.424,19.277 L172.604,19.277 L172.604,12.058 C172.604,11.261 173.792,11.23 173.792,12.089 L173.792,21.926 z" fill="#3B3B3B"/>
      <path d="M184.474,14.332 L184.474,41.676 C184.474,44.119 181.058,44.084 181.058,41.676 L181.058,30.832 L179.238,30.832 L179.238,14.332 C179.238,10.496 184.474,10.496 184.474,14.332" fill="#3B3B3B"/>
    </g>
    <g>
      <path d="M397.456,32.062 L397.456,36.813 L399.96,36.813 L399.96,29.709 L371.915,29.709 L371.915,19.438 C371.915,18.75 371.368,18.187 370.673,18.187 C369.984,18.187 369.429,18.749 369.429,19.438 L369.429,36.813 L371.915,36.813 L371.915,32.062 L397.456,32.062 z" fill="#3B3B3B"/>
      <path d="M375.745,24.444 C376.993,24.444 377.997,23.436 377.997,22.188 C377.997,20.944 376.993,19.936 375.745,19.936 C374.497,19.936 373.493,20.944 373.493,22.188 C373.493,23.436 374.497,24.444 375.745,24.444" fill="#3B3B3B"/>
      <path d="M400,27.836 L399.992,24.736 C399.984,23.752 399.16,23.072 398.195,22.953 L380.492,21.187 C380.457,21.179 380.424,21.164 380.396,21.164 C379.779,21.164 379.283,21.664 379.283,22.271 L379.283,25.615 L374.656,25.615 C374.035,25.615 373.541,26.115 373.541,26.728 C373.541,27.343 374.035,27.835 374.656,27.835 L400,27.835 z" fill="#3B3B3B"/>
    </g>
    <g>
      <path d="M137.353,23.616 C137.353,23.616 137.025,30.093 131.349,29.554 C131.349,29.553 130.716,24.131 137.353,23.616" fill="#3B3B3B"/>
      <path d="M132.833,32.056 C133.577,31.322 134.593,30.876 135.722,30.876 C137.997,30.876 139.849,32.72 139.849,35.001 C139.849,35.087 139.849,35.157 139.845,35.243 L139.837,35.243 C139.765,36.134 139.482,37.243 138.81,38.618 C138.81,38.618 137.654,40.829 136.726,41.845 L136.638,41.923 C136.189,42.376 135.562,42.657 134.872,42.657 C134.032,42.657 133.284,42.251 132.837,41.618 L132.825,41.618 C132.372,42.251 131.628,42.657 130.788,42.657 C130.097,42.657 129.474,42.376 129.02,41.923 L128.932,41.845 C128.012,40.829 126.852,38.618 126.852,38.618 C126.18,37.243 125.897,36.126 125.832,35.243 L125.816,35.243 C125.804,35.157 125.804,35.087 125.804,35.001 C125.804,32.72 127.656,30.876 129.939,30.876 C131.068,30.876 132.08,31.321 132.828,32.056" fill="#3B3B3B"/>
      <path d="M114.261,12.343 L119.279,12.343 L119.279,14.21 L114.261,14.21 z" fill="#3B3B3B"/>
      <path d="M110.685,25.803 C110.685,26.412 111.529,27.084 112.208,26.303 L114.062,23.889 C114.146,23.78 114.257,23.553 114.257,23.303 L114.257,17.514 C114.257,15.897 112.749,17.233 112.177,17.811 L110.898,19.436 C110.685,19.709 110.685,19.811 110.685,19.959 L110.685,25.803 z M109.509,19.873 C109.509,19.521 109.613,19.201 109.792,18.928 L112.05,16.092 C112.696,15.295 113.376,15.389 113.376,15.389 L119.177,15.389 C122.773,15.741 122.777,19.162 122.777,19.162 L122.777,41.365 C122.777,41.951 122.302,42.427 121.718,42.427 L110.589,42.427 C109.997,42.427 109.521,41.95 109.521,41.365 L109.509,19.873 z" fill="#3B3B3B"/>
    </g>
    <g>
      <path d="M231.568,13.026 C232.124,13.026 232.568,13.474 232.568,14.018 L232.568,17.422 L210.636,17.422 L210.636,14.026 C210.636,13.482 211.084,13.034 211.628,13.034 L231.568,13.026 z M217.092,16.334 C217.692,16.334 218.18,15.834 218.18,15.234 C218.18,14.634 217.692,14.142 217.092,14.142 C216.488,14.142 216,14.634 216,15.234 C216,15.834 216.488,16.334 217.092,16.334 M213.88,16.334 C214.488,16.334 214.968,15.834 214.968,15.234 C214.968,14.634 214.488,14.142 213.88,14.142 C213.28,14.142 212.792,14.634 212.792,15.234 C212.792,15.834 213.28,16.334 213.88,16.334" fill="#3B3B3B"/>
      <path d="M210.584,41.966 L210.584,19.954 C210.584,19.406 211.028,18.962 211.576,18.962 L231.52,18.962 C232.068,18.962 232.516,19.406 232.516,19.954 L232.516,41.974 L210.584,41.966 z M221.432,36.962 C225.336,36.962 228.496,33.798 228.496,29.898 C228.496,25.998 225.336,22.834 221.432,22.834 C217.528,22.834 214.368,25.998 214.368,29.898 C214.368,33.798 217.528,36.962 221.432,36.962" fill="#3B3B3B"/>
      <path d="M227.156,28.094 C227.3,28.61 227.38,29.15 227.38,29.718 C227.38,32.994 224.716,35.65 221.44,35.65 C218.16,35.65 215.504,32.994 215.504,29.718 C215.504,29.106 215.596,28.522 215.76,27.974 L215.76,27.982 C216.14,28.394 216.68,28.654 217.288,28.654 C217.816,28.654 218.288,28.462 218.656,28.138 L218.648,28.138 C219.02,28.462 219.5,28.654 220.024,28.654 C220.568,28.654 221.064,28.446 221.432,28.094 L221.432,28.102 C221.8,28.446 222.292,28.654 222.844,28.654 C223.404,28.654 223.916,28.43 224.284,28.07 L224.284,28.078 C224.656,28.438 225.164,28.654 225.724,28.654 C226.268,28.654 226.776,28.438 227.148,28.086 L227.156,28.094 z" fill="#3B3B3B"/>
    </g>
    <path d="M8.099,39.648 L16.199,39.648 L16.191,31.556 L24.302,31.556 L24.302,23.445 L16.191,23.445 L16.199,15.353 L8.099,15.353 L8.107,23.445 L0,23.445 L0,31.556 L8.107,31.556 z" fill="#3B3B3B"/>
    <g>
      <path d="M76.879,16.546 C78.339,16.546 79.527,15.366 79.527,13.906 C79.527,12.446 78.339,11.258 76.879,11.258 C75.419,11.258 74.239,12.446 74.239,13.906 C74.235,15.366 75.415,16.546 76.879,16.546" fill="#3B3B3B"/>
      <path d="M69.612,22.89 L65.628,22.89 C64.048,22.89 64.048,24.97 65.628,24.97 L70.184,24.962 C70.52,24.962 70.868,24.782 71.136,24.358 L73.424,20.75 L73.416,42.202 C73.416,43.022 74.08,43.686 74.9,43.686 C75.72,43.686 76.384,43.022 76.384,42.202 L76.384,29.758 L77.384,29.758 L77.376,42.202 C77.376,43.022 78.04,43.686 78.864,43.686 C79.684,43.686 80.348,43.022 80.348,42.202 L80.348,20.75 L81.332,20.75 L81.332,28.654 C81.332,30.25 83.408,30.25 83.4,28.654 L83.4,20.586 C83.4,18.826 82.04,17.102 79.98,17.102 L75.096,17.102 C73.908,17.102 72.876,17.71 72.268,18.638 L69.612,22.89 z" fill="#3B3B3B"/>
      <path d="M53.723,36.17 C56.107,36.17 58.035,38.098 58.035,40.482 L57.995,43.414 L63.075,43.414 L67.667,30.45 L67.691,26.062 L52.271,26.07 L52.263,36.162 L53.723,36.17 z" fill="#3B3B3B"/>
      <path d="M50.411,40.482 C50.411,38.686 51.871,37.226 53.667,37.226 C55.463,37.226 56.923,38.686 56.923,40.482 C56.923,42.282 55.463,43.742 53.667,43.742 C51.871,43.742 50.411,42.282 50.411,40.482 M53.667,41.898 C54.447,41.898 55.083,41.266 55.083,40.482 C55.083,39.702 54.447,39.07 53.667,39.07 C52.887,39.07 52.251,39.702 52.251,40.482 C52.251,41.266 52.887,41.898 53.667,41.898" fill="#3B3B3B"/>
      <path d="M64.847,19.43 L64.847,19.43 L64.239,19.726 L63.947,19.126 L63.347,19.414 L63.059,18.814 L62.455,19.102 L62.159,18.502 L62.167,18.502 L61.559,18.798 L61.267,18.186 L61.267,18.194 L60.667,18.486 L60.379,17.866 L58.551,23.078 C58.403,23.502 58.627,23.97 59.051,24.11 L62.003,25.134 C62.427,25.282 62.887,25.05 63.035,24.634 L64.847,19.43 z" fill="#3B3B3B"/>
      <path d="M61.439,13.401 L62.291,14.122 L52.249,25.987 L51.398,25.266 z" fill="#3B3B3B"/>
    </g>
  </g>
</svg>
