<?xml version="1.0" encoding="UTF-8"?>
<!DOCTYPE svg PUBLIC "-//W3C//DTD SVG 1.1//EN" "http://www.w3.org/Graphics/SVG/1.1/DTD/svg11.dtd">
<svg version="1.1" xmlns="http://www.w3.org/2000/svg" xmlns:xlink="http://www.w3.org/1999/xlink" x="0" y="0" width="26.785" height="30.122" viewBox="0, 0, 26.785, 30.122">
  <g id="Layer_1">
    <g>
      <path d="M8.248,5.296 C9.717,5.296 10.896,4.101 10.896,2.648 C10.896,1.179 9.715,0 8.248,0 C6.786,0 5.6,1.18 5.6,2.648 C5.6,4.101 6.786,5.296 8.248,5.296" fill="#3B3B3B"/>
      <path d="M9.951,28.035 C5.607,28.035 2.084,24.52 2.084,20.169 C2.084,17.785 3.162,15.66 4.844,14.215 L4.699,11.755 C1.887,13.512 0,16.607 0,20.169 C0,25.66 4.451,30.122 9.951,30.122 C14,30.122 17.459,27.684 19.015,24.215 L17.615,21.794 C16.867,25.348 13.73,28.035 9.951,28.035" fill="#3B3B3B"/>
      <path d="M25.586,23.346 L23.75,23.346 L19.273,15.627 C18.997,15.15 18.501,14.889 17.993,14.873 L11.373,14.873 L11.302,12.869 L16.117,12.869 C16.777,12.83 17.318,12.33 17.318,11.662 C17.318,10.998 16.793,10.486 16.117,10.463 L11.161,10.463 L10.993,8.186 C10.901,6.795 9.705,5.702 8.293,5.784 C6.883,5.858 5.813,7.073 5.886,8.483 L6.342,16.522 C6.467,17.932 7.647,18.936 9.04,18.932 L17.628,18.932 L21.142,25.006 C21.426,25.475 21.966,25.733 22.506,25.729 L22.51,25.752 L25.586,25.752 C26.246,25.713 26.785,25.213 26.785,24.545 C26.785,23.881 26.261,23.369 25.586,23.346" fill="#3B3B3B"/>
    </g>
  </g>
</svg>
