<?xml version="1.0" encoding="UTF-8"?>
<!DOCTYPE svg PUBLIC "-//W3C//DTD SVG 1.1//EN" "http://www.w3.org/Graphics/SVG/1.1/DTD/svg11.dtd">
<svg version="1.1" xmlns="http://www.w3.org/2000/svg" xmlns:xlink="http://www.w3.org/1999/xlink" x="0" y="0" width="75.029" height="72.087" viewBox="0, 0, 75.029, 72.087">
  <g id="Layer_1">
    <g>
      <path d="M38.09,15.828 L31.959,9.697 L31.433,9.171 C29.74,7.478 29.74,4.733 31.433,3.04 C32.153,2.337 33.077,1.887 34.083,1.79 L34.498,1.78 L34.914,1.79 C35.948,1.891 36.806,2.354 37.564,3.04 L38.09,3.566 L40.214,5.69 L38.09,3.566 L38.616,3.04 C39.336,2.337 40.26,1.887 41.266,1.79 C41.542,1.763 41.82,1.79 42.097,1.79 C43.131,1.891 43.989,2.354 44.747,3.04 C46.44,4.733 46.44,7.478 44.747,9.171 L44.221,9.697 L38.09,15.828 z" fill="#2BA4FF"/>
      <path d="M34.498,1.794 L34.914,1.803 C35.948,1.905 36.806,2.368 37.564,3.053 L38.061,3.55 L38.061,15.812 L31.959,9.71 L31.433,9.184 C29.74,7.491 29.74,4.746 31.433,3.053 C32.153,2.351 33.077,1.9 34.083,1.804 L34.498,1.794 z" fill="#FF4444"/>
    </g>
    <path d="M1.5,35.776 C71.546,5.412 37.794,-3.396 37.864,3.94" fill-opacity="0" stroke="#FFFFFF" stroke-width="1.5"/>
    <path d="M74.529,35.776 C4.483,5.412 38.234,-3.396 38.164,3.94" fill-opacity="0" stroke="#FFFFFF" stroke-width="1.5"/>
    <path d="M35.894,4.101 L37.081,3.051 L37.935,4.016 L36.748,5.067 L35.894,4.101 z" fill="#FF4444"/>
    <path d="M40.127,4.101 L38.94,3.051 L38.086,4.016 L39.273,5.067 L40.127,4.101 z" fill="#2AA4FF"/>
    <path d="M11.401,31.791 C16.359,58.71 11.401,69.643 11.401,71.587" fill-opacity="0" stroke="#FFFFFF" stroke-width="1.5"/>
    <path d="M64.571,31.791 C59.613,58.71 64.571,69.643 64.571,71.587" fill-opacity="0" stroke="#FFFFFF" stroke-width="1.5"/>
    <path d="M38.09,13.543 L33.738,9.191 L33.365,8.817 C32.163,7.615 32.163,5.667 33.365,4.465 C33.876,3.966 34.532,3.646 35.246,3.578 L35.54,3.571 L35.836,3.578 C36.569,3.65 37.179,3.978 37.717,4.465 L38.09,4.838 L39.598,6.346 L38.09,4.838 L38.464,4.465 C38.975,3.966 39.631,3.646 40.345,3.578 C40.541,3.559 40.738,3.578 40.935,3.578 C41.669,3.65 42.278,3.978 42.816,4.465 C44.018,5.667 44.018,7.615 42.816,8.817 L42.443,9.191 L38.09,13.543 z" fill="#FFE12B"/>
    <g>
      <path d="M40.076,41.744 C42.122,41.744 43.59,43.429 43.899,44.346 L46.408,52.591 C46.906,54.359 44.644,55.096 44.115,53.372 L41.853,45.805 L40.552,45.805 L44.336,59.253 L40.733,59.253 L40.733,69.747 C40.733,71.537 38.039,71.529 38.039,69.747 L38.039,59.187 L36.677,59.187 L36.677,69.725 C36.677,71.537 33.97,71.537 33.97,69.725 L33.97,59.253 L30.358,59.253 L34.097,45.805 L32.858,45.805 L30.605,53.394 C30.067,55.043 27.788,54.368 28.313,52.591 L30.813,44.346 C31.081,43.407 32.272,41.744 34.331,41.744 L40.076,41.744 z" fill="#FFE12A"/>
      <path d="M37.361,41.123 C38.966,41.123 40.28,39.813 40.28,38.204 C40.28,36.586 38.966,35.276 37.361,35.276 C35.738,35.276 34.442,36.586 34.442,38.204 C34.442,39.813 35.734,41.123 37.361,41.123" fill="#FFE12A"/>
      <path d="M29.4,55.309 L29.4,71.189" fill-opacity="0" stroke="#FFE12A" stroke-width="1"/>
    </g>
    <g>
      <path d="M22.61,41.116 C20.998,41.116 19.686,39.813 19.686,38.2 C19.686,36.588 20.998,35.276 22.61,35.276 C24.223,35.276 25.526,36.588 25.526,38.2 C25.53,39.813 24.227,41.116 22.61,41.116" fill="#208BFF"/>
      <path d="M30.636,48.122 L35.036,48.122 C36.78,48.122 36.78,50.418 35.036,50.418 L30.004,50.41 C29.633,50.41 29.249,50.211 28.953,49.743 L26.426,45.758 L26.435,69.448 C26.435,70.353 25.702,71.087 24.796,71.087 C23.891,71.087 23.158,70.353 23.158,69.448 L23.158,55.706 L22.053,55.706 L22.062,69.448 C22.062,70.353 21.329,71.087 20.419,71.087 C19.513,71.087 18.78,70.353 18.78,69.448 L18.78,45.758 L17.694,45.758 L17.694,54.487 C17.694,56.249 15.401,56.249 15.41,54.487 L15.41,45.577 C15.41,43.634 16.912,41.73 19.187,41.73 L24.58,41.73 C25.892,41.73 27.032,42.401 27.703,43.426 L30.636,48.122 z" fill="#208BFF"/>
    </g>
    <g>
      <path d="M46.065,44.991 L46.065,49.302 L45.927,49.52 C45.631,49.987 45.248,50.186 44.877,50.185 L39.855,50.194 C38.114,50.194 38.114,47.902 39.855,47.902 L44.247,47.902 L46.065,44.991 z" fill="#FB2A35"/>
      <path d="M54.318,41.744 C56.364,41.744 57.832,43.429 58.141,44.346 L60.65,52.591 C61.148,54.359 58.886,55.096 58.357,53.372 L56.095,45.805 L54.794,45.805 L58.577,59.253 L54.975,59.253 L54.975,69.747 C54.975,71.537 52.281,71.529 52.281,69.747 L52.281,59.187 L50.919,59.187 L50.919,69.725 C50.919,71.537 48.211,71.537 48.211,69.725 L48.211,59.253 L44.6,59.253 L48.339,45.805 L47.1,45.805 L46.056,49.321 L43.754,48.636 L45.054,44.346 C45.323,43.407 46.514,41.744 48.573,41.744 L54.318,41.744 z" fill="#FB2A35"/>
      <path d="M51.603,41.123 C53.207,41.123 54.521,39.813 54.521,38.204 C54.521,36.586 53.207,35.276 51.603,35.276 C49.98,35.276 48.684,36.586 48.684,38.204 C48.684,39.813 49.976,41.123 51.603,41.123" fill="#FB2A35"/>
    </g>
  </g>
</svg>
